<?xml version="1.0" encoding="UTF-8"?>
<svg xmlns="http://www.w3.org/2000/svg" xmlns:xlink="http://www.w3.org/1999/xlink" viewBox="0 0 96 96" width="96px" height="96px">
<g id="surface46677390">
<path style=" stroke:none;fill-rule:nonzero;fill:rgb(87.843138%,25.490198%,23.921569%);fill-opacity:1;" d="M 20 12 C 15.578125 12 12 15.578125 12 20 L 12 76 C 12 80.421875 15.578125 84 20 84 L 76 84 C 80.421875 84 84 80.421875 84 76 L 84 20 C 84 15.578125 80.421875 12 76 12 Z M 20 20 L 76 20 L 76 76 L 20 76 Z M 31.117188 25.265625 C 27.6875 25.265625 25.632812 27.328125 25.632812 30.070312 C 25.632812 32.8125 27.6875 34.867188 30.773438 34.867188 C 34.203125 34.867188 36.257812 32.8125 36.257812 30.070312 C 36.257812 27.328125 34.203125 25.265625 31.117188 25.265625 Z M 25.90625 40 L 25.90625 68 L 36 68 L 36 40 Z M 44.328125 40 L 44.328125 68 L 54.421875 68 L 54.421875 52.695312 C 54.421875 48.140625 57.671875 47.484375 58.648438 47.484375 C 59.625 47.484375 62.234375 48.464844 62.234375 52.695312 L 62.234375 68 L 72 68 L 72 52.695312 C 72 43.90625 68.09375 40 63.210938 40 C 58.328125 40 55.722656 41.625 54.421875 43.90625 L 54.421875 40 Z M 44.328125 40 "/>
</g>
</svg>
