<svg height="480pt" viewBox="-63 0 479 480" width="480pt" xmlns="http://www.w3.org/2000/svg" xmlns:xlink="http://www.w3.org/1999/xlink"><linearGradient id="a"><stop offset="0" stop-color="#fff33b"/><stop offset=".014" stop-color="#fee72e"/><stop offset=".042" stop-color="#fed51b"/><stop offset=".07" stop-color="#fdca10"/><stop offset=".1" stop-color="#fdc70c"/><stop offset=".4" stop-color="#f3903f"/><stop offset=".8" stop-color="#ed683c"/><stop offset="1" stop-color="#e93e3a"/></linearGradient><linearGradient id="b" gradientUnits="userSpaceOnUse" x1="88.5" x2="88.5" xlink:href="#a" y1="0" y2="536"/><linearGradient id="c" gradientUnits="userSpaceOnUse" x1="56.5" x2="56.5" xlink:href="#a" y1="0" y2="536"/><linearGradient id="d" gradientUnits="userSpaceOnUse" x1="38.292" x2="38.292" xlink:href="#a" y1="0" y2="536"/><linearGradient id="e" gradientUnits="userSpaceOnUse" x1="280.5" x2="280.5" xlink:href="#a" y1="0" y2="536"/><linearGradient id="f" gradientUnits="userSpaceOnUse" x1="312.028" x2="312.028" xlink:href="#a" y1="0" y2="536"/><linearGradient id="g" gradientUnits="userSpaceOnUse" x1="304.5" x2="304.5" xlink:href="#a" y1="0" y2="536"/><linearGradient id="h" gradientUnits="userSpaceOnUse" x1="96.5" x2="96.5" xlink:href="#a" y1="0" y2="536"/><linearGradient id="i" gradientUnits="userSpaceOnUse" x1="80.5" x2="80.5" xlink:href="#a" y1="0" y2="536"/><path d="m88.5 304c-48.601562 0-88 39.398438-88 88s39.398438 88 88 88 88-39.398438 88-88c-.058594-48.578125-39.421875-87.941406-88-88zm0 160c-39.765625 0-72-32.234375-72-72s32.234375-72 72-72 72 32.234375 72 72c-.046875 39.746094-32.253906 71.953125-72 72zm0 0" fill="url(#b)"/><path d="m24.5 392h16c.027344-26.5 21.5-47.972656 48-48v-16c-35.328125.039062-63.960938 28.671875-64 64zm0 0" fill="url(#c)"/><path d="m27.445312 411.199219c1.957032 6.199219 4.851563 12.0625 8.574219 17.394531l13.113281-9.179688c-2.785156-3.992187-4.945312-8.390624-6.402343-13.039062zm0 0" fill="url(#d)"/><path d="m280.5 128c-39.765625 0-72 32.234375-72 72s32.234375 72 72 72 72-32.234375 72-72c-.046875-39.746094-32.253906-71.953125-72-72zm0 128c-30.929688 0-56-25.070312-56-56s25.070312-56 56-56 56 25.070312 56 56c-.035156 30.914062-25.085938 55.964844-56 56zm0 0" fill="url(#e)"/><path d="m299.933594 225.40625 9.734375 12.699219c6.214843-4.777344 11.175781-10.988281 14.457031-18.105469l-14.535156-6.679688c-2.199219 4.75-5.511719 8.894532-9.65625 12.085938zm0 0" fill="url(#f)"/><path d="m312.5 200h16c-.027344-26.5-21.5-47.972656-48-48v16c17.671875 0 32 14.328125 32 32zm0 0" fill="url(#g)"/><path d="m96.5 112c30.929688 0 56-25.070312 56-56s-25.070312-56-56-56-56 25.070312-56 56c.035156 30.914062 25.085938 55.964844 56 56zm0-96c22.089844 0 40 17.910156 40 40s-17.910156 40-40 40-40-17.910156-40-40c.027344-22.082031 17.917969-39.972656 40-40zm0 0" fill="url(#h)"/><path d="m96.5 40v-16c-17.671875 0-32 14.328125-32 32h16c0-8.835938 7.164062-16 16-16zm0 0" fill="url(#i)"/></svg>