<?xml version="1.0" encoding="UTF-8"?>
<svg xmlns="http://www.w3.org/2000/svg" xmlns:xlink="http://www.w3.org/1999/xlink" viewBox="0 0 90 90" width="90px" height="90px">
<g id="surface8037641">
<path style=" stroke:none;fill-rule:nonzero;fill:rgb(87.843138%,25.490198%,23.921569%);fill-opacity:1;" d="M 84 20.8125 C 81.128906 22.085938 78.046875 22.945312 74.808594 23.332031 C 78.113281 21.351562 80.648438 18.214844 81.84375 14.476562 C 78.753906 16.3125 75.328125 17.644531 71.679688 18.363281 C 68.761719 15.253906 64.601562 13.308594 60 13.308594 C 51.160156 13.308594 43.996094 20.476562 43.996094 29.308594 C 43.996094 30.5625 44.140625 31.789062 44.410156 32.953125 C 31.113281 32.289062 19.324219 25.917969 11.425781 16.234375 C 10.054688 18.597656 9.265625 21.34375 9.265625 24.28125 C 9.265625 29.832031 12.085938 34.730469 16.378906 37.597656 C 13.757812 37.515625 11.289062 36.796875 9.132812 35.597656 C 9.132812 35.667969 9.132812 35.730469 9.132812 35.800781 C 9.132812 43.554688 14.644531 50.023438 21.96875 51.488281 C 20.628906 51.855469 19.210938 52.050781 17.75 52.050781 C 16.722656 52.050781 15.71875 51.949219 14.742188 51.765625 C 16.777344 58.121094 22.6875 62.75 29.691406 62.878906 C 24.214844 67.171875 17.316406 69.730469 9.816406 69.730469 C 8.527344 69.730469 7.25 69.65625 5.996094 69.507812 C 13.078125 74.046875 21.488281 76.695312 30.527344 76.695312 C 59.964844 76.695312 76.054688 52.3125 76.054688 31.164062 C 76.054688 30.472656 76.039062 29.78125 76.011719 29.09375 C 79.140625 26.835938 81.855469 24.019531 84 20.8125 Z M 84 20.8125 "/>
</g>
</svg>
